<svg xmlns="http://www.w3.org/2000/svg" viewBox="0 0 51 75.75"><defs><style>.cls-1{fill:#fff;}</style></defs><title>pointer_circle</title><g id="Layer_2" data-name="Layer 2"><g id="pointer_circle"><path class="cls-1" d="M49.55,41.79l-4.7-8.14-4.7-8.14L25.42,0,10.7,25.51l-5,8.73L1.71,41.08A25.2,25.2,0,0,0,0,50.25c0,.25,0,.5,0,.75a25.49,25.49,0,0,0,51,0c0-.25,0-.5,0-.75A25.22,25.22,0,0,0,49.55,41.79Zm-7.7-11.1a25.39,25.39,0,0,0-16.11-5.94c0-18.16-.42-23.19-.42-23.19ZM46.73,51A21.24,21.24,0,0,1,4.27,51c0-.25,0-.5,0-.75a21.25,21.25,0,0,1,42.5,0C46.75,50.5,46.75,50.75,46.73,51Z"/></g></g></svg>