<svg width="36" height="33" viewBox="0 0 36 33" fill="none" xmlns="http://www.w3.org/2000/svg">
<path d="M31.0631 7.78787H4.51794C2.68538 7.78787 1.1998 9.27346 1.1998 11.106V27.6967C1.1998 29.5293 2.68538 31.0149 4.51794 31.0149H31.0631C32.8957 31.0149 34.3812 29.5293 34.3812 27.6967V11.106C34.3812 9.27346 32.8957 7.78787 31.0631 7.78787Z" stroke="#7B7B7B" stroke-width="2" stroke-linecap="round" stroke-linejoin="round"/>
<path d="M24.4268 31.0148V4.46963C24.4268 3.58961 24.0772 2.74562 23.4549 2.12335C22.8326 1.50108 21.9887 1.15149 21.1086 1.15149H14.4723C13.5923 1.15149 12.7483 1.50108 12.1261 2.12335C11.5038 2.74562 11.1542 3.58961 11.1542 4.46963V31.0148" stroke="#7B7B7B" stroke-width="2" stroke-linecap="round" stroke-linejoin="round"/>
</svg>
