<?xml version="1.0" encoding="utf-8"?>
<!-- Generator: Adobe Illustrator 24.0.2, SVG Export Plug-In . SVG Version: 6.00 Build 0)  -->
<svg version="1.1" id="Layer_1" xmlns="http://www.w3.org/2000/svg" xmlns:xlink="http://www.w3.org/1999/xlink" x="0px" y="0px"
	 viewBox="0 0 76.5 51" style="enable-background:new 0 0 76.5 51;" xml:space="preserve">
<style type="text/css">
	.st0{fill:#AEAEAE;}
</style>
<title>pointer_circle</title>
<g id="Layer_2_1_">
	<g id="pointer_circle">
		<path class="st0" d="M34.7,49.6l8.1-4.7l8.1-4.7l25.5-14.7L51,10.7l-8.7-5l-6.8-4c-2.9-1.1-6-1.7-9.2-1.7c-0.3,0-0.5,0-0.8,0
			C11.4,0,0,11.4,0,25.5C0,39.6,11.4,51,25.5,51c0.3,0,0.5,0,0.8,0C29.1,51,32,50.5,34.7,49.6z M45.8,41.9
			c3.8-4.5,5.9-10.2,5.9-16.1c18.2,0,23.2-0.4,23.2-0.4L45.8,41.9z M25.5,46.7C13.8,46.4,4.6,36.6,4.9,24.8
			C5.3,13.6,14.3,4.6,25.5,4.3c0.3,0,0.5,0,0.8,0c11.7,0,21.3,9.5,21.3,21.3S38,46.8,26.3,46.8C26,46.8,25.8,46.8,25.5,46.7z"/>
	</g>
</g>
</svg>
